<?xml version="1.0" standalone="no"?><!DOCTYPE svg PUBLIC "-//W3C//DTD SVG 1.1//EN" "http://www.w3.org/Graphics/SVG/1.1/DTD/svg11.dtd"><svg t="1552276002936" class="icon" style="" viewBox="0 0 1024 1024" version="1.1" xmlns="http://www.w3.org/2000/svg" p-id="1209" xmlns:xlink="http://www.w3.org/1999/xlink" width="200" height="200"><defs><style type="text/css"></style></defs><path d="M513.25002 3.145643c-281.754346 0-510.161555 228.39785-510.161555 510.140653 0 281.743826 228.408232 510.142699 510.161555 510.142699 281.754346 0 510.161555-228.398874 510.161555-510.142699C1023.411575 231.544517 795.004366 3.145643 513.25002 3.145643zM811.829233 446.816418 489.823534 767.56049c-22.945512 22.856567-60.15138 22.856567-83.097915 0L219.756847 581.321832c-22.947558-22.857591-22.947558-59.914578 0-82.773192 22.945512-22.855544 60.15138-22.855544 83.096891 0l145.419816 144.853086 280.459811-279.358499c22.945512-22.857591 60.15138-22.857591 83.096891 0C834.775768 386.901841 834.775768 423.958828 811.829233 446.816418z" p-id="1210"></path></svg>